<svg width="100" height="100" viewBox="0 0 100 100" fill="none" xmlns="http://www.w3.org/2000/svg">
<circle cx="50" cy="50" r="50" fill="white"/>
<path d="M70.368 32.16C71.36 32.352 72.096 32.688 72.576 33.168C73.088 33.648 73.344 34.208 73.344 34.848C73.344 35.904 73.04 36.672 72.432 37.152C71.856 37.632 70.928 37.824 69.648 37.728C66.768 37.504 64.512 37.36 62.88 37.296C61.28 37.2 59.168 37.136 56.544 37.104C55.36 42.992 54.272 48.912 53.28 54.864C52.928 57.04 52.56 59.568 52.176 62.448C51.792 65.296 51.536 67.6 51.408 69.36C51.344 70.288 50.96 71.008 50.256 71.52C49.552 72 48.704 72.24 47.712 72.24C46.656 72.24 45.84 71.984 45.264 71.472C44.688 70.96 44.4 70.288 44.4 69.456C44.4 68.688 44.512 67.424 44.736 65.664C44.992 63.872 45.28 62 45.6 60.048C45.952 58.096 46.224 56.4 46.416 54.96C46.768 52.528 47.168 50.112 47.616 47.712C48.064 45.312 48.512 43.04 48.96 40.896C49.056 40.416 49.168 39.872 49.296 39.264C49.424 38.624 49.568 37.92 49.728 37.152C46.592 37.248 44.128 37.504 42.336 37.92C40.544 38.336 39.264 38.928 38.496 39.696C37.76 40.432 37.392 41.392 37.392 42.576C37.392 43.664 37.712 44.704 38.352 45.696C38.48 45.92 38.544 46.16 38.544 46.416C38.544 47.024 38.176 47.6 37.44 48.144C36.736 48.656 36 48.912 35.232 48.912C34.688 48.912 34.24 48.752 33.888 48.432C33.248 47.888 32.72 47.12 32.304 46.128C31.888 45.104 31.68 43.952 31.68 42.672C31.68 39.952 32.56 37.776 34.32 36.144C36.112 34.48 38.816 33.264 42.432 32.496C46.08 31.728 50.752 31.344 56.448 31.344C59.968 31.344 62.768 31.408 64.848 31.536C66.96 31.664 68.8 31.872 70.368 32.16Z" fill="black"/>
</svg>
