<svg xmlns="http://www.w3.org/2000/svg" width="100" height="112" viewBox="0 0 100 112" fill="none">
<circle cx="50" cy="54" r="50" fill="white"/>
<path d="M75.824 29.88C77.1467 30.136 78.128 30.584 78.768 31.224C79.4507 31.864 79.792 32.6107 79.792 33.464C79.792 34.872 79.3867 35.896 78.576 36.536C77.808 37.176 76.5707 37.432 74.864 37.304C71.024 37.0053 68.016 36.8133 65.84 36.728C63.7067 36.6 60.8907 36.5147 57.392 36.472C55.8133 44.3227 54.3627 52.216 53.04 60.152C52.5707 63.0533 52.08 66.424 51.568 70.264C51.056 74.0613 50.7147 77.1333 50.544 79.48C50.4587 80.7173 49.9467 81.6773 49.008 82.36C48.0693 83 46.9387 83.32 45.616 83.32C44.208 83.32 43.12 82.9787 42.352 82.296C41.584 81.6133 41.2 80.7173 41.2 79.608C41.2 78.584 41.3493 76.8987 41.648 74.552C41.9893 72.1627 42.3733 69.6667 42.8 67.064C43.2693 64.4613 43.632 62.2 43.888 60.28C44.3573 57.0373 44.8907 53.816 45.488 50.616C46.0853 47.416 46.6827 44.3867 47.28 41.528C47.408 40.888 47.5573 40.1627 47.728 39.352C47.8987 38.4987 48.0907 37.56 48.304 36.536C44.1227 36.664 40.8373 37.0053 38.448 37.56C36.0587 38.1147 34.352 38.904 33.328 39.928C32.3467 40.9093 31.856 42.1893 31.856 43.768C31.856 45.2187 32.2827 46.6053 33.136 47.928C33.3067 48.2267 33.392 48.5467 33.392 48.888C33.392 49.6987 32.9013 50.4667 31.92 51.192C30.9813 51.8747 30 52.216 28.976 52.216C28.2507 52.216 27.6533 52.0027 27.184 51.576C26.3307 50.8507 25.6267 49.8267 25.072 48.504C24.5173 47.1387 24.24 45.6027 24.24 43.896C24.24 40.2693 25.4133 37.368 27.76 35.192C30.1493 32.9733 33.7547 31.352 38.576 30.328C43.44 29.304 49.6693 28.792 57.264 28.792C61.9573 28.792 65.6907 28.8773 68.464 29.048C71.28 29.2187 73.7333 29.496 75.824 29.88Z" fill="black"/>
</svg>