<svg width="70" height="32" viewBox="0 0 70 32" fill="none" xmlns="http://www.w3.org/2000/svg">
<path d="M20.184 1.08C20.68 1.176 21.048 1.344 21.288 1.584C21.544 1.824 21.672 2.104 21.672 2.424C21.672 2.952 21.52 3.336 21.216 3.576C20.928 3.816 20.464 3.912 19.824 3.864C18.384 3.752 17.256 3.68 16.44 3.648C15.64 3.6 14.584 3.568 13.272 3.552C12.68 6.496 12.136 9.456 11.64 12.432C11.464 13.52 11.28 14.784 11.088 16.224C10.896 17.648 10.768 18.8 10.704 19.68C10.672 20.144 10.48 20.504 10.128 20.76C9.776 21 9.352 21.12 8.856 21.12C8.328 21.12 7.92 20.992 7.632 20.736C7.344 20.48 7.2 20.144 7.2 19.728C7.2 19.344 7.256 18.712 7.368 17.832C7.496 16.936 7.64 16 7.8 15.024C7.976 14.048 8.112 13.2 8.208 12.48C8.384 11.264 8.584 10.056 8.808 8.856C9.032 7.656 9.256 6.52 9.48 5.448C9.528 5.208 9.584 4.936 9.648 4.632C9.712 4.312 9.784 3.96 9.864 3.576C8.296 3.624 7.064 3.752 6.168 3.96C5.272 4.168 4.632 4.464 4.248 4.848C3.88 5.216 3.696 5.696 3.696 6.288C3.696 6.832 3.856 7.352 4.176 7.848C4.24 7.96 4.272 8.08 4.272 8.208C4.272 8.512 4.088 8.8 3.72 9.072C3.368 9.328 3 9.456 2.616 9.456C2.344 9.456 2.12 9.376 1.944 9.216C1.624 8.944 1.36 8.56 1.152 8.064C0.944 7.552 0.84 6.976 0.84 6.336C0.84 4.976 1.28 3.888 2.16 3.072C3.056 2.24 4.408 1.632 6.216 1.248C8.04 0.863999 10.376 0.671999 13.224 0.671999C14.984 0.671999 16.384 0.703999 17.424 0.767999C18.48 0.831999 19.4 0.935999 20.184 1.08ZM27.9701 13.632C28.1781 13.632 28.3381 13.736 28.4501 13.944C28.5621 14.152 28.6181 14.416 28.6181 14.736C28.6181 15.504 28.3861 15.96 27.9221 16.104C26.9621 16.44 25.9061 16.632 24.7541 16.68C24.4501 18.024 23.8501 19.104 22.9541 19.92C22.0581 20.72 21.0421 21.12 19.9061 21.12C18.9461 21.12 18.1221 20.888 17.4341 20.424C16.7621 19.96 16.2501 19.344 15.8981 18.576C15.5461 17.808 15.3701 16.976 15.3701 16.08C15.3701 14.864 15.6021 13.784 16.0661 12.84C16.5301 11.88 17.1701 11.136 17.9861 10.608C18.8021 10.064 19.7061 9.792 20.6981 9.792C21.9141 9.792 22.8901 10.216 23.6261 11.064C24.3781 11.896 24.8181 12.928 24.9461 14.16C25.6981 14.112 26.5941 13.952 27.6341 13.68C27.7621 13.648 27.8741 13.632 27.9701 13.632ZM20.0981 18.576C20.6101 18.576 21.0501 18.368 21.4181 17.952C21.8021 17.536 22.0581 16.936 22.1861 16.152C21.6901 15.816 21.3061 15.376 21.0341 14.832C20.7781 14.288 20.6501 13.712 20.6501 13.104C20.6501 12.848 20.6741 12.592 20.7221 12.336H20.6021C19.9621 12.336 19.4261 12.648 18.9941 13.272C18.5781 13.88 18.3701 14.744 18.3701 15.864C18.3701 16.744 18.5381 17.416 18.8741 17.88C19.2261 18.344 19.6341 18.576 20.0981 18.576ZM29.0063 21.12C28.2863 21.12 27.6943 20.792 27.2303 20.136C26.7823 19.464 26.5583 18.632 26.5583 17.64C26.5583 16.44 26.6383 15.344 26.7983 14.352C26.9583 13.344 27.2223 12.28 27.5903 11.16C27.7503 10.68 27.9743 10.336 28.2623 10.128C28.5503 9.92 29.0063 9.816 29.6303 9.816C29.9823 9.816 30.2223 9.872 30.3503 9.984C30.4943 10.096 30.5663 10.264 30.5663 10.488C30.5663 10.616 30.4783 11.048 30.3023 11.784C30.1423 12.376 30.0143 12.912 29.9183 13.392C29.5983 15.072 29.4383 16.192 29.4383 16.752C29.4383 17.088 29.4783 17.328 29.5583 17.472C29.6383 17.6 29.7663 17.664 29.9423 17.664C30.1823 17.664 30.4783 17.424 30.8303 16.944C31.1983 16.464 31.5823 15.736 31.9823 14.76C32.3983 13.784 32.7983 12.584 33.1823 11.16C33.3103 10.68 33.5023 10.336 33.7583 10.128C34.0303 9.92 34.4303 9.816 34.9583 9.816C35.3263 9.816 35.5823 9.864 35.7263 9.96C35.8703 10.04 35.9423 10.2 35.9423 10.44C35.9423 10.84 35.7423 11.936 35.3423 13.728C34.8943 15.776 34.6703 17.04 34.6703 17.52C34.6703 17.824 34.7343 18.064 34.8623 18.24C34.9903 18.4 35.1583 18.48 35.3663 18.48C35.6863 18.48 36.0623 18.288 36.4943 17.904C36.9423 17.504 37.5343 16.864 38.2703 15.984C38.4623 15.76 38.6783 15.648 38.9183 15.648C39.1263 15.648 39.2863 15.744 39.3983 15.936C39.5263 16.128 39.5903 16.392 39.5903 16.728C39.5903 17.368 39.4383 17.864 39.1343 18.216C38.4463 19.064 37.7023 19.76 36.9023 20.304C36.1183 20.848 35.2223 21.12 34.2143 21.12C33.4463 21.12 32.8783 20.824 32.5103 20.232C32.1583 19.64 31.9823 18.808 31.9823 17.736C31.7103 18.824 31.3023 19.664 30.7583 20.256C30.2143 20.832 29.6303 21.12 29.0063 21.12ZM39.3482 21.12C38.7402 21.12 38.3082 20.8 38.0522 20.16C37.8122 19.52 37.6922 18.496 37.6922 17.088C37.6922 15.008 37.9882 13.032 38.5802 11.16C38.7242 10.696 38.9562 10.36 39.2762 10.152C39.6122 9.928 40.0762 9.816 40.6682 9.816C40.9882 9.816 41.2122 9.856 41.3402 9.936C41.4682 10.016 41.5322 10.168 41.5322 10.392C41.5322 10.648 41.4122 11.224 41.1722 12.12C41.0122 12.76 40.8842 13.32 40.7882 13.8C40.6922 14.28 40.6122 14.872 40.5482 15.576C41.0762 14.2 41.6682 13.08 42.3242 12.216C42.9802 11.352 43.6202 10.736 44.2442 10.368C44.8842 10 45.4682 9.816 45.9962 9.816C47.0362 9.816 47.5562 10.336 47.5562 11.376C47.5562 11.584 47.4842 12.088 47.3402 12.888C47.2122 13.528 47.1482 13.928 47.1482 14.088C47.1482 14.648 47.3482 14.928 47.7482 14.928C48.1962 14.928 48.7722 14.576 49.4762 13.872C49.6842 13.664 49.9002 13.56 50.1242 13.56C50.3322 13.56 50.4922 13.656 50.6042 13.848C50.7322 14.024 50.7962 14.264 50.7962 14.568C50.7962 15.16 50.6362 15.624 50.3162 15.96C49.8682 16.424 49.3402 16.824 48.7322 17.16C48.1402 17.48 47.5082 17.64 46.8362 17.64C45.9882 17.64 45.3402 17.424 44.8922 16.992C44.4602 16.56 44.2442 15.976 44.2442 15.24C44.2442 15 44.2682 14.76 44.3162 14.52C44.3482 14.2 44.3642 13.984 44.3642 13.872C44.3642 13.616 44.2762 13.488 44.1002 13.488C43.8602 13.488 43.5402 13.76 43.1402 14.304C42.7562 14.832 42.3722 15.536 41.9882 16.416C41.6042 17.296 41.2922 18.224 41.0522 19.2C40.8762 19.952 40.6682 20.464 40.4282 20.736C40.2042 20.992 39.8442 21.12 39.3482 21.12ZM50.2701 21.12C49.6621 21.12 49.2301 20.8 48.9741 20.16C48.7341 19.52 48.6141 18.496 48.6141 17.088C48.6141 15.008 48.9101 13.032 49.5021 11.16C49.6461 10.696 49.8781 10.36 50.1981 10.152C50.5341 9.928 50.9981 9.816 51.5901 9.816C51.9101 9.816 52.1341 9.856 52.2621 9.936C52.3901 10.016 52.4541 10.168 52.4541 10.392C52.4541 10.648 52.3341 11.224 52.0941 12.12C51.9341 12.76 51.8061 13.32 51.7101 13.8C51.6141 14.28 51.5341 14.872 51.4701 15.576C51.9981 14.2 52.5901 13.08 53.2461 12.216C53.9021 11.352 54.5421 10.736 55.1661 10.368C55.8061 10 56.3901 9.816 56.9181 9.816C57.9581 9.816 58.4781 10.336 58.4781 11.376C58.4781 12 58.3021 13.128 57.9501 14.76C57.6461 16.152 57.4941 17.072 57.4941 17.52C57.4941 18.16 57.7261 18.48 58.1901 18.48C58.5101 18.48 58.8861 18.288 59.3181 17.904C59.7661 17.504 60.3581 16.864 61.0941 15.984C61.2861 15.76 61.5021 15.648 61.7421 15.648C61.9501 15.648 62.1101 15.744 62.2221 15.936C62.3501 16.128 62.4141 16.392 62.4141 16.728C62.4141 17.368 62.2621 17.864 61.9581 18.216C61.2701 19.064 60.5261 19.76 59.7261 20.304C58.9421 20.848 58.0461 21.12 57.0381 21.12C56.2221 21.12 55.6061 20.888 55.1901 20.424C54.7741 19.944 54.5661 19.256 54.5661 18.36C54.5661 17.912 54.6781 17.112 54.9021 15.96C55.1101 14.952 55.2141 14.256 55.2141 13.872C55.2141 13.616 55.1261 13.488 54.9501 13.488C54.7421 13.488 54.4461 13.76 54.0621 14.304C53.6941 14.832 53.3101 15.536 52.9101 16.416C52.5261 17.296 52.2141 18.224 51.9741 19.2C51.7981 19.952 51.5901 20.464 51.3501 20.736C51.1261 20.992 50.7661 21.12 50.2701 21.12ZM68.8723 9.816C69.2403 9.816 69.4963 9.864 69.6403 9.96C69.7843 10.056 69.8563 10.216 69.8563 10.44C69.8563 10.824 69.6483 12.192 69.2323 14.544C68.8643 16.8 68.6483 18.136 68.5843 18.552C67.9923 22.664 67.1763 25.92 66.1363 28.32C65.0963 30.72 63.7123 31.92 61.9843 31.92C61.1683 31.92 60.5043 31.664 59.9923 31.152C59.4803 30.656 59.2243 30 59.2243 29.184C59.2243 28.432 59.3923 27.664 59.7283 26.88C60.0803 26.096 60.7203 25.192 61.6483 24.168C62.5923 23.16 63.9203 22 65.6323 20.688L65.7043 20.136C65.8163 19.544 65.9443 18.696 66.0883 17.592C65.7683 18.744 65.3203 19.624 64.7443 20.232C64.1683 20.824 63.5603 21.12 62.9203 21.12C62.2003 21.12 61.6083 20.792 61.1443 20.136C60.6963 19.464 60.4723 18.632 60.4723 17.64C60.4723 16.44 60.5523 15.344 60.7123 14.352C60.8723 13.344 61.1363 12.28 61.5043 11.16C61.6643 10.68 61.8883 10.336 62.1763 10.128C62.4643 9.92 62.9203 9.816 63.5443 9.816C63.8963 9.816 64.1363 9.872 64.2643 9.984C64.4083 10.096 64.4803 10.264 64.4803 10.488C64.4803 10.616 64.3923 11.048 64.2163 11.784C64.0563 12.376 63.9283 12.912 63.8323 13.392C63.7043 14.048 63.5923 14.68 63.4963 15.288C63.4003 15.88 63.3523 16.368 63.3523 16.752C63.3523 17.36 63.5203 17.664 63.8563 17.664C64.0963 17.664 64.3923 17.424 64.7443 16.944C65.1123 16.464 65.4963 15.736 65.8963 14.76C66.3123 13.784 66.7123 12.584 67.0963 11.16C67.2243 10.68 67.4163 10.336 67.6723 10.128C67.9443 9.92 68.3443 9.816 68.8723 9.816ZM62.2483 29.592C62.6483 29.592 63.0963 29.128 63.5923 28.2C64.0883 27.272 64.5843 25.728 65.0803 23.568C63.8483 24.608 62.9523 25.552 62.3923 26.4C61.8483 27.264 61.5763 28.016 61.5763 28.656C61.5763 28.928 61.6243 29.152 61.7203 29.328C61.8323 29.504 62.0083 29.592 62.2483 29.592Z" fill="black"/>
</svg>
